<svg viewBox="0 0 100 100" fill="none" xmlns="http://www.w3.org/2000/svg">
  <!-- Red Book Outer Border -->
  <path d="M15 75C25 75 38 66 50 66C62 66 75 75 85 75V25C75 25 62 16 50 16C38 16 25 25 15 25V75Z" fill="#d63031" stroke="#ff4d4d" stroke-width="2" stroke-linejoin="round"/>
  <!-- Book Spine Divider -->
  <path d="M50 16V66" stroke="#0c0d10" stroke-width="2.5" stroke-linecap="round"/>
  
  <!-- Proper Hammer and Sickle -->
  <g transform="translate(50, 44) scale(0.68)">
    <!-- Hammer Handle -->
    <path d="M -16,16 L 15,-15" stroke="#e5c158" stroke-width="4.5" stroke-linecap="round"/>
    <!-- Hammer Head -->
    <path d="M 6,-18 L 18,-6 L 14,-2 L 2,-14 Z" fill="#e5c158" stroke="#0c0d10" stroke-width="1.5" stroke-linejoin="round"/>
    <!-- Sickle Blade -->
    <path d="M 12,-16 C -2,-19 -18,-11 -20,2 C -22,12 -13,24 -2,26 C 6,28 11,23 14,16 C 8,19 0,16 -3,10 C -6,4 -3,-3 3,-6 C 7,-8 10,-8 12,-16 Z" fill="#e5c158" stroke="#0c0d10" stroke-width="1.5" stroke-linejoin="round"/>
  </g>
</svg>
