<svg viewBox="0 0 100 100" fill="none" xmlns="http://www.w3.org/2000/svg">
  <!-- Red Book Outer Border -->
  <path d="M12 77C22 77 36 67 50 67C64 67 78 77 88 77V23C78 23 64 13 50 13C36 13 22 23 12 23V77Z" fill="#d63031" stroke="#ff4d4d" stroke-width="2" stroke-linejoin="round"/>
  <!-- Book Spine Divider -->
  <path d="M50 13V67" stroke="#13151c" stroke-width="3" stroke-linecap="round"/>
  
  <!-- Pages inner cream color for high readability / contrast -->
  <path d="M15 74C24 74 37 65 48 65V21C37 21 24 30 15 30V74Z" fill="#fcfaf2"/>
  <path d="M85 74C76 74 63 65 52 65V21C63 21 76 30 85 30V74Z" fill="#fcfaf2"/>

  <!-- Hammer and Sickle (Gold with dark outline) -->
  <g transform="translate(50, 43) scale(0.65)" style="transform-origin: center;">
    <!-- Sickle Blade -->
    <path d="M 12,-16 C -2,-19 -18,-11 -20,2 C -22,12 -13,24 -2,26 C 6,28 11,23 14,16 C 8,19 0,16 -3,10 C -6,4 -3,-3 3,-6 C 7,-8 10,-8 12,-16 Z" fill="#e5c158" stroke="#13151c" stroke-width="2" stroke-linejoin="round"/>
    <!-- Hammer Handle -->
    <path d="M -15,16 L 15,-14" stroke="#e5c158" stroke-width="4" stroke-linecap="round"/>
    <!-- Hammer Head -->
    <path d="M 6,-18 L 18,-6 L 14,-2 L 2,-14 Z" fill="#e5c158" stroke="#13151c" stroke-width="2" stroke-linejoin="round"/>
  </g>
</svg>
